# xmcd
#
# Track frame offsets: 
#        150
#        50292
#        95015
#        128865
#
# Disc length: 2505 seconds
#
# Revision: 5
# Processed by: cddbd v1.5.2PL0 Copyright (c) Steve Scherf et al.
# Submitted via: ExactAudioCopyFreeDBPlugin 1.0
#
DISCID=2f09c704
DTITLE=Joe Henderson feat. Alice Coltrane - The Elements
DYEAR=1974
DGENRE=Jazz
TTITLE0=Fire
TTITLE1=Air
TTITLE2=Water
TTITLE3=Earth
EXTD=YEAR: 1973
EXTT0=
EXTT1=
EXTT2=
EXTT3=
PLAYORDER=
